<svg id="Слой_1" data-name="Слой 1" xmlns="http://www.w3.org/2000/svg" viewBox="0 0 17.11 29.11"><defs><style>.cls-1{fill:none;stroke:#21a5b7;stroke-miterlimit:10;}</style></defs><path class="cls-1" d="M23.16,3.83V7.7A1.17,1.17,0,0,1,22,8.87H17.83a.67.67,0,0,0-.67.67v4.85h4.55a1.45,1.45,0,0,1,1.45,1.45v1.49a1.45,1.45,0,0,1-1.45,1.45H17.16v12H11V18.51H8.49A1.45,1.45,0,0,1,7,17.06V15.84a1.45,1.45,0,0,1,1.45-1.45h2.6V3.83a1.16,1.16,0,0,1,1.16-1.17H22A1.17,1.17,0,0,1,23.16,3.83Z" transform="translate(-6.54 -2.16)"/></svg>