<svg id="Слой_1" data-name="Слой 1" xmlns="http://www.w3.org/2000/svg" viewBox="0 0 135.27 206.23"><defs><style>.cls-1,.cls-2,.cls-5{fill:none;stroke:#ddeeed;stroke-miterlimit:10;}.cls-1{stroke-width:3px;}.cls-2{stroke-width:4px;}.cls-3{fill:#21a5b7;}.cls-4{fill:#ddeeed;}</style></defs><path class="cls-1" d="M17.07,22.72H118.2A15.57,15.57,0,0,1,133.77,38.3V204.73a0,0,0,0,1,0,0H1.5a0,0,0,0,1,0,0V38.3A15.57,15.57,0,0,1,17.07,22.72Z"/><rect class="cls-2" x="14.16" y="44.11" width="44.49" height="44.49" rx="4.65"/><path class="cls-3" d="M81.29,76.4h7.36a0,0,0,0,1,0,0V80a0,0,0,0,1,0,0H81.29a1.82,1.82,0,0,1-1.82-1.82v0a1.82,1.82,0,0,1,1.82-1.82Z" transform="translate(22.47 -46.42) rotate(42.18)"/><path class="cls-3" d="M85.11,74.77H97.57a0,0,0,0,1,0,0v3.64a0,0,0,0,1,0,0H85.11a1.82,1.82,0,0,1-1.82-1.82v0A1.82,1.82,0,0,1,85.11,74.77Z" transform="translate(157.11 64.72) rotate(138.94)"/><rect class="cls-3" x="77.46" y="53.69" width="43.69" height="9.51" rx="2.8"/><rect class="cls-3" x="77.46" y="70.48" width="43.69" height="9.51" rx="2.8"/><rect class="cls-2" x="14.16" y="108.27" width="44.49" height="44.49" rx="4.65"/><path class="cls-3" d="M81.29,140.55h7.36a0,0,0,0,1,0,0v3.64a0,0,0,0,1,0,0H81.29a1.82,1.82,0,0,1-1.82-1.82v0a1.82,1.82,0,0,1,1.82-1.82Z" transform="translate(65.55 -29.81) rotate(42.18)"/><path class="cls-3" d="M85.11,138.92H97.57a0,0,0,0,1,0,0v3.64a0,0,0,0,1,0,0H85.11a1.82,1.82,0,0,1-1.82-1.82v0A1.82,1.82,0,0,1,85.11,138.92Z" transform="translate(199.24 177.25) rotate(138.94)"/><rect class="cls-3" x="77.46" y="115.61" width="43.69" height="9.51" rx="2.8"/><rect class="cls-3" x="77.46" y="132.39" width="43.69" height="9.51" rx="2.8"/><rect class="cls-4" x="38.61" y="9.2" width="60.69" height="22.65"/><rect class="cls-5" x="52.79" y="0.5" width="32.76" height="14.76"/></svg>