<svg id="Слой_1" data-name="Слой 1" xmlns="http://www.w3.org/2000/svg" viewBox="0 0 253.86 211.08"><defs><style>.cls-1{fill:#fff;}.cls-1,.cls-3,.cls-4{stroke:#ddeeed;stroke-miterlimit:10;}.cls-1,.cls-4{stroke-width:3px;}.cls-2{fill:#ddeeed;}.cls-3,.cls-4{fill:none;}.cls-3{stroke-width:4px;}</style></defs><rect class="cls-1" x="55.35" y="22.26" width="143.19" height="101.53" rx="4.52"/><path class="cls-1" d="M131.42,210.43l-69.6.42S56.51,154.68,22.69,132A34,34,0,0,1,7.4,102.31L11.08,22.2s11-1.59,16.49,13.63L37.71,104.6Z" transform="translate(-5.87 -1.29)"/><path class="cls-1" d="M130,211.91s5.47-85.54-47.74-96.14c0,0-21.22-6.74-47-38.46a6.69,6.69,0,0,0-7.82-1.89c-7.63,3.19-16.3,14.93,26.77,58.16l17.37,18" transform="translate(-5.87 -1.29)"/><rect class="cls-2" x="111.99" y="22.26" width="27.39" height="101.53"/><path class="cls-3" d="M128.67,25.56s-24.65-19.27-15-22S128.67,25.56,128.67,25.56Z" transform="translate(-5.87 -1.29)"/><path class="cls-3" d="M134.17,27.4s24.65-19.26,15-22S134.17,27.4,134.17,27.4Z" transform="translate(-5.87 -1.29)"/><line class="cls-4" x1="55.35" y1="41.59" x2="198.54" y2="41.59"/><path class="cls-1" d="M134.17,210.43l69.6.42s5.3-56.17,39.13-78.83a34,34,0,0,0,15.29-29.71L254.5,22.2S243.45,20.61,238,35.83L227.87,104.6Z" transform="translate(-5.87 -1.29)"/><path class="cls-1" d="M135.63,211.91s-5.47-85.54,47.75-96.14c0,0,21.22-6.74,47-38.46a6.69,6.69,0,0,1,7.82-1.89c7.63,3.19,16.3,14.93-26.78,58.16l-17.37,18" transform="translate(-5.87 -1.29)"/></svg>