<svg id="Слой_1" data-name="Слой 1" xmlns="http://www.w3.org/2000/svg" viewBox="0 0 62.34 62.19"><defs><style>.cls-1{fill:#21a5b7;}.cls-2{fill:#ddeeed;}</style></defs><path class="cls-1" d="M7.11,3.46l1.48-1a3.89,3.89,0,0,1,5.18.77l5.49,7a3.29,3.29,0,0,1-.83,4.81L17,16.1a3.9,3.9,0,0,1-5.18-.78l-5.49-7A3.24,3.24,0,0,1,6.16,4.4" transform="translate(0 -1.81)"/><path class="cls-1" d="M44.25,64l-8-10.62a2.81,2.81,0,0,1,.79-4.1l4.28-2.77a3.32,3.32,0,0,1,4.41.74l8.45,11.28a2.82,2.82,0,0,1-.8,4.1l-1.29.84" transform="translate(0 -1.81)"/><path class="cls-2" d="M7.11,3.46s-16,13.46,0,39.62,45,20.38,45,20.38L39.68,47.56S10.51,43.46,16.6,16.28Z" transform="translate(0 -1.81)"/><path class="cls-1" d="M37.63,34.52a2.38,2.38,0,0,0,3.8-.59c.82-1.76,1-4.47-2-8.12a15.83,15.83,0,0,0-10.18-5.3,2.14,2.14,0,0,0-1.95,3.61h0a2.35,2.35,0,0,0,1.21.6c2.15.37,8.45,1.92,7.76,7.27C36.12,33,37.63,34.52,37.63,34.52Z" transform="translate(0 -1.81)"/><path class="cls-1" d="M53.8,32.27A4.57,4.57,0,0,0,61.33,31c1.63-3.71,1.93-9.45-4-17.16C51.68,6.51,43.72,3.66,37.19,2.64a4.51,4.51,0,0,0-3.88,7.63h0a4.45,4.45,0,0,0,2.4,1.28c4.27.79,16.74,4.06,15.36,15.37C50.82,29,53.8,32.27,53.8,32.27Z" transform="translate(0 -1.81)"/></svg>