<svg id="Слой_1" data-name="Слой 1" xmlns="http://www.w3.org/2000/svg" viewBox="0 0 764.13 394.45"><defs><style>.cls-1{fill:#ddeeed;}.cls-2{fill:#d5ddf2;}.cls-10,.cls-11,.cls-3,.cls-4,.cls-6,.cls-7{fill:#1f9ba5;}.cls-3{opacity:0.25;}.cls-5,.cls-8,.cls-9{fill:#4abdcf;}.cls-10,.cls-6,.cls-9{stroke:#20929b;}.cls-10,.cls-11,.cls-6,.cls-8,.cls-9{stroke-miterlimit:10;}.cls-6{stroke-width:0.25px;}.cls-7{opacity:0.36;}.cls-8{stroke:#21a5b7;stroke-width:4px;}.cls-10,.cls-11,.cls-9{stroke-width:0.5px;}.cls-11{stroke:#1c8689;}.cls-12{fill:#94a0d1;}</style></defs><path class="cls-1" d="M320.12,425.2s-72-263.3,243-240.13S666.6-2.59,927.58,35.64c0,0,142.58,27.8,149.59,147.12V425.2Z" transform="translate(-313.03 -30.99)"/><line class="cls-1" x1="549.79" y1="376.26" x2="552.83" y2="379.3"/><polygon class="cls-2" points="263.32 380.07 277.92 370.06 277.92 352.42 263.32 362.45 263.32 380.07"/><polygon class="cls-3" points="60.36 126.72 60.36 140.47 69.12 133.59 60.36 126.72"/><polygon class="cls-4" points="60.36 156.9 60.36 217 117.28 261.7 117.28 201.59 60.36 156.9"/><polygon class="cls-5" points="117.28 201.55 174.2 156.85 174.2 216.95 117.28 261.65 117.28 201.55"/><polygon class="cls-6" points="117.28 201.55 60.36 156.85 117.28 112.15 174.2 156.85 117.28 201.55"/><polygon class="cls-7" points="117.28 185.17 60.36 140.47 117.28 95.77 174.2 140.47 117.28 185.17"/><polygon class="cls-3" points="117.28 171.41 60.36 126.72 117.28 82.02 174.2 126.72 117.28 171.41"/><ellipse class="cls-4" cx="461.26" cy="246.23" rx="14.46" ry="11.22" transform="translate(-295.65 491.59) rotate(-60)"/><line class="cls-8" x1="519.44" y1="162.54" x2="526.2" y2="157.95"/><line class="cls-8" x1="530.43" y1="153.89" x2="537.2" y2="149.3"/><line class="cls-8" x1="541.59" y1="144.47" x2="548.35" y2="139.88"/><line class="cls-8" x1="552.99" y1="136.14" x2="559.75" y2="131.55"/><line class="cls-8" x1="563.26" y1="128.09" x2="570.02" y2="123.5"/><line class="cls-8" x1="374.06" y1="267.76" x2="381.17" y2="263.72"/><ellipse class="cls-5" cx="399.33" cy="238.46" rx="8.92" ry="14.8" transform="translate(-378.76 200.62) rotate(-30)"/><line class="cls-8" x1="147.33" y1="215.25" x2="153.58" y2="220.5"/><line class="cls-8" x1="171.07" y1="235.39" x2="177.33" y2="240.65"/><line class="cls-8" x1="182.39" y1="243.62" x2="188.65" y2="248.88"/><line class="cls-8" x1="194.49" y1="251.79" x2="200.75" y2="257.04"/><line class="cls-8" x1="205.61" y1="260.48" x2="211.87" y2="265.74"/><line class="cls-8" x1="216.16" y1="268.17" x2="222.42" y2="273.43"/><line class="cls-8" x1="225.41" y1="277.21" x2="231.66" y2="282.47"/><line class="cls-8" x1="235.95" y1="284.9" x2="242.21" y2="290.15"/><line class="cls-8" x1="160.14" y1="226.55" x2="166.4" y2="231.81"/><polygon class="cls-3" points="60.36 140.47 60.36 156.85 70.79 148.66 60.36 140.47"/><polygon class="cls-3" points="174.2 140.47 174.2 156.85 163.77 148.66 174.2 140.47"/><polygon class="cls-3" points="174.2 126.72 174.2 140.47 165.43 133.59 174.2 126.72"/><polygon class="cls-4" points="133.88 196.55 133.88 202.36 163.27 180.65 163.27 174.41 133.88 196.55"/><polygon class="cls-9" points="517.4 164.87 517.4 211.78 517.4 211.82 517.4 241.77 547.31 219.46 547.31 189.51 547.31 189.47 547.31 147.13 517.4 164.87"/><polygon class="cls-10" points="486.13 147.13 486.13 189.52 486.13 219.47 517.4 241.75 517.4 211.83 517.4 211.8 517.4 164.88 486.13 147.13"/><polygon class="cls-9" points="486.13 147.13 517.4 164.88 547.31 147.13 518.88 128.88 486.13 147.13"/><polygon class="cls-2" points="165.52 179.36 169.11 176.71 169.11 170.47 165.52 173.17 165.52 179.36"/><polygon class="cls-6" points="211.99 359.15 211.99 293.81 259.97 327.87 259.97 394.21 211.99 359.15"/><polygon class="cls-5" points="220.61 351.65 220.61 310.01 251.24 331.72 251.24 373.99 220.61 351.65"/><polygon class="cls-5" points="259.97 394.21 259.97 327.54 376.61 248.74 376.61 311.48 259.97 394.21"/><path class="cls-5" d="M560.42,284.65" transform="translate(-313.03 -30.99)"/><polygon class="cls-11" points="211.99 293.81 324.67 218.94 376.61 248.74 259.97 328.46 211.99 293.81"/><polygon class="cls-4" points="296.34 311.03 296.34 328.65 372.12 276.73 372.12 258.97 296.34 311.03"/><polygon class="cls-4" points="296.34 311.03 296.34 328.65 372.12 276.73 372.12 258.97 296.34 311.03"/><polygon class="cls-4" points="297.69 338.7 297.69 356.31 373.46 304.39 373.46 286.63 297.69 338.7"/><polygon class="cls-12" points="279.7 339.57 294.3 329.57 294.3 311.92 279.7 321.96 279.7 339.57"/><polygon class="cls-12" points="280.31 367.83 294.91 357.82 294.91 340.18 280.31 350.21 280.31 367.83"/><polygon class="cls-2" points="262.11 350.74 276.7 340.74 276.7 323.09 262.11 333.13 262.11 350.74"/><polygon class="cls-9" points="457.25 134.07 457.25 226.58 457.25 226.66 457.25 285.74 517.4 241.75 517.4 182.67 517.4 182.59 517.4 99.07 457.25 134.07"/><polygon class="cls-10" points="394.38 99.07 394.38 182.69 394.38 241.77 457.25 285.7 457.25 226.69 457.25 226.62 457.25 134.07 394.38 99.07"/><polygon class="cls-9" points="394.38 99.07 457.25 134.07 517.4 99.07 460.23 63.07 394.38 99.07"/><polygon class="cls-12" points="451.77 157.97 451.77 140.38 413.19 118.98 413.19 135.94 451.77 157.97"/><polygon class="cls-2" points="399.03 127.84 409.95 134.07 409.95 116.94 399.03 110.88 399.03 127.84"/><polygon class="cls-12" points="452.18 182.27 452.18 164.68 413.6 143.27 413.6 160.23 452.18 182.27"/><polygon class="cls-2" points="399.44 152.14 410.36 158.37 410.36 141.24 399.44 135.18 399.44 152.14"/><polygon class="cls-12" points="452.18 205.24 452.18 187.65 413.6 166.24 413.6 183.2 452.18 205.24"/><polygon class="cls-2" points="399.44 175.1 410.36 181.34 410.36 164.2 399.44 158.15 399.44 175.1"/><polygon class="cls-12" points="452.18 229.36 452.18 211.77 413.6 190.36 413.6 207.32 452.18 229.36"/><polygon class="cls-2" points="399.44 199.23 410.36 205.46 410.36 188.32 399.44 182.27 399.44 199.23"/><ellipse class="cls-5" cx="732.6" cy="269.01" rx="8.92" ry="14.8" transform="translate(-349.39 371.35) rotate(-30)"/><line class="cls-8" x1="385.71" y1="260.01" x2="392.81" y2="255.97"/><line class="cls-8" x1="397.74" y1="251.61" x2="404.85" y2="247.57"/><line class="cls-8" x1="409.76" y1="244.2" x2="416.87" y2="240.16"/><polygon class="cls-12" points="460.84 143.24 460.84 154.96 504.36 128.44 504.36 116.17 460.84 143.24"/><polygon class="cls-2" points="505.76 115.61 505.76 127.74 516.72 121.06 516.72 108.79 505.76 115.61"/><polygon class="cls-12" points="460.84 178.37 460.84 190.1 504.36 163.57 504.36 151.3 460.84 178.37"/><polygon class="cls-2" points="505.76 150.74 505.76 162.87 516.72 156.19 516.72 143.92 505.76 150.74"/><polygon class="cls-12" points="460.84 197.1 460.84 208.83 504.36 182.3 504.36 170.03 460.84 197.1"/><polygon class="cls-2" points="505.76 169.47 505.76 181.6 516.72 174.92 516.72 162.65 505.76 169.47"/><polygon class="cls-12" points="460.84 160.78 460.84 172.5 504.36 145.98 504.36 133.71 460.84 160.78"/><polygon class="cls-2" points="505.76 133.15 505.76 145.28 516.72 138.6 516.72 126.33 505.76 133.15"/><line class="cls-8" x1="576.16" y1="119.46" x2="582.41" y2="124.71"/><line class="cls-8" x1="587.47" y1="127.68" x2="593.73" y2="132.94"/><line class="cls-8" x1="599.57" y1="135.85" x2="605.83" y2="141.11"/><line class="cls-8" x1="610.7" y1="144.54" x2="616.96" y2="149.8"/><line class="cls-8" x1="621.25" y1="152.23" x2="627.5" y2="157.49"/><polygon class="cls-12" points="460.84 228.89 460.84 240.62 504.36 214.09 504.36 201.82 460.84 228.89"/><polygon class="cls-2" points="505.76 201.26 505.76 213.39 516.72 206.71 516.72 194.44 505.76 201.26"/><polygon class="cls-12" points="460.5 212.38 460.5 224.1 504.01 197.58 504.01 185.31 460.5 212.38"/><polygon class="cls-2" points="505.41 184.75 505.41 196.88 516.37 190.2 516.37 177.93 505.41 184.75"/><polygon class="cls-12" points="460.84 246.26 460.84 257.99 504.36 231.47 504.36 219.19 460.84 246.26"/><polygon class="cls-2" points="505.76 218.63 505.76 230.76 516.72 224.08 516.72 211.81 505.76 218.63"/><polygon class="cls-12" points="522.13 226.28 522.13 231.73 540.42 219.41 540.42 213.71 522.13 226.28"/><polygon class="cls-2" points="541.01 213.45 541.01 219.09 545.61 215.98 545.61 210.28 541.01 213.45"/><polygon class="cls-12" points="522.13 215.56 522.13 221.01 540.42 208.69 540.42 202.99 522.13 215.56"/><polygon class="cls-2" points="541.01 202.73 541.01 208.36 545.61 205.26 545.61 199.56 541.01 202.73"/><polygon class="cls-12" points="522.13 204.13 522.13 209.58 540.42 197.26 540.42 191.56 522.13 204.13"/><polygon class="cls-2" points="541.01 191.3 541.01 196.94 545.61 193.83 545.61 188.13 541.01 191.3"/><polygon class="cls-12" points="522.27 192.19 522.27 197.64 540.57 185.32 540.57 179.62 522.27 192.19"/><polygon class="cls-2" points="541.16 179.36 541.16 185 545.76 181.89 545.76 176.19 541.16 179.36"/><polygon class="cls-12" points="522.13 180.59 522.13 186.03 540.42 173.72 540.42 168.02 522.13 180.59"/><polygon class="cls-2" points="541.01 167.75 541.01 173.39 545.61 170.29 545.61 164.59 541.01 167.75"/><polygon class="cls-12" points="522.13 169.1 522.13 174.55 540.42 162.23 540.42 156.53 522.13 169.1"/><polygon class="cls-2" points="541.01 156.27 541.01 161.91 545.61 158.8 545.61 153.1 541.01 156.27"/><polygon class="cls-3" points="730.41 95.33 730.41 109.08 721.66 102.2 730.41 95.33"/><polygon class="cls-4" points="730.41 125.51 730.41 185.61 673.5 230.31 673.5 170.21 730.41 125.51"/><polygon class="cls-5" points="673.5 170.16 616.58 125.46 616.58 185.56 673.5 230.26 673.5 170.16"/><polygon class="cls-6" points="673.5 170.16 730.41 125.46 673.5 80.77 616.58 125.46 673.5 170.16"/><polygon class="cls-7" points="673.5 153.78 730.41 109.08 673.5 64.38 616.58 109.08 673.5 153.78"/><polygon class="cls-3" points="673.5 140.02 730.41 95.33 673.5 50.63 616.58 95.33 673.5 140.02"/><polygon class="cls-3" points="730.41 109.08 730.41 125.46 719.98 117.27 730.41 109.08"/><polygon class="cls-3" points="616.58 109.08 616.58 125.46 627.01 117.27 616.58 109.08"/><polygon class="cls-3" points="616.58 95.33 616.58 109.08 625.35 102.2 616.58 95.33"/><polygon class="cls-4" points="656.9 165.16 656.9 170.97 627.5 149.26 627.5 143.02 656.9 165.16"/><polygon class="cls-2" points="625.25 147.97 621.66 145.32 621.66 139.08 625.25 141.78 625.25 147.97"/><polygon class="cls-4" points="656.9 175.88 656.9 181.69 627.5 159.98 627.5 153.74 656.9 175.88"/><polygon class="cls-2" points="625.25 158.69 621.66 156.04 621.66 149.8 625.25 152.5 625.25 158.69"/><polygon class="cls-4" points="656.9 186.33 656.9 192.14 627.5 170.43 627.5 164.19 656.9 186.33"/><polygon class="cls-2" points="625.25 169.14 621.66 166.49 621.66 160.25 625.25 162.95 625.25 169.14"/><polygon class="cls-4" points="656.9 201.03 656.9 208.43 621.66 180.76 621.66 172.8 656.9 201.03"/><polygon class="cls-2" points="262.11 380.07 276.7 370.06 276.7 352.42 262.11 362.45 262.11 380.07"/></svg>