<svg id="Слой_1" data-name="Слой 1" xmlns="http://www.w3.org/2000/svg" viewBox="0 0 805.12 407.65"><defs><style>.cls-1{fill:#ddeeed;}.cls-2,.cls-3,.cls-5,.cls-6{fill:#1f9ba5;}.cls-2{opacity:0.25;}.cls-4{fill:#4abdcf;}.cls-5{stroke:#20929b;stroke-miterlimit:10;stroke-width:0.25px;}.cls-6{opacity:0.36;}.cls-7{fill:#21a5b7;}</style></defs><path class="cls-1" d="M281.94,425.2S206.08,152.93,538,176.89,647-17.18,922,22.35c0,0,150.23,28.75,157.61,152.14V425.2Z" transform="translate(-274.47 -17.55)"/><polygon class="cls-2" points="451.42 178.36 451.42 201.72 472.82 190.04 451.42 178.36"/><polygon class="cls-3" points="451.42 229.63 451.42 331.72 590.56 407.65 590.56 305.55 451.42 229.63"/><polygon class="cls-4" points="590.56 305.47 729.71 229.55 729.71 331.64 590.56 407.57 590.56 305.47"/><polygon class="cls-5" points="590.56 305.47 451.42 229.55 590.56 153.62 729.71 229.55 590.56 305.47"/><polygon class="cls-6" points="590.56 277.65 451.42 201.72 590.56 125.79 729.71 201.72 590.56 277.65"/><polygon class="cls-2" points="590.56 254.28 451.42 178.36 590.56 102.43 729.71 178.36 590.56 254.28"/><polygon class="cls-2" points="451.42 201.72 451.42 229.55 476.92 215.63 451.42 201.72"/><polygon class="cls-2" points="729.71 201.72 729.71 229.55 704.21 215.63 729.71 201.72"/><polygon class="cls-2" points="729.71 178.36 729.71 201.72 708.26 190.04 729.71 178.36"/><path class="cls-3" d="M772.6,48.2,878.13,23.79l109,68.75S965.48,225.76,879.88,253.22C879.88,253.22,758.81,220.27,772.6,48.2Z" transform="translate(-274.47 -17.55)"/><path class="cls-4" d="M771.51,71.69l94.15-22.77L962.93,113S943.6,237.28,867.22,262.89C867.22,262.89,759.2,232.16,771.51,71.69Z" transform="translate(-274.47 -17.55)"/><path class="cls-7" d="M844.05,197.58c-1.72,1.89-5.25,1.56-6.43-.59L815,155.51c-3.45-6.32-1.74-16.36,3.8-22.43h0c5.55-6.07,12.84-5.87,16.28.45l24.27,44.57a2.66,2.66,0,0,1-.43,3.15Z" transform="translate(-274.47 -17.55)"/><path class="cls-7" d="M838.24,196.74c.89,2.25,4.38,2.89,6.33,1.15l68.83-61.52c5.91-5.28,8.46-15.23,5.69-22.23h0c-2.76-7-9.8-8.37-15.71-3.09L831.72,175.1a2.74,2.74,0,0,0-.82,3.09Z" transform="translate(-274.47 -17.55)"/></svg>