<svg id="Слой_1" data-name="Слой 1" xmlns="http://www.w3.org/2000/svg" viewBox="0 0 835.46 423.84"><defs><style>.cls-1{fill:#ddeeed;}.cls-2{fill:#4abdcf;}.cls-3{fill:#177170;}.cls-4{fill:#1b898c;}.cls-5{fill:#1e99a3;}.cls-6{fill:#21a5b7;}.cls-7{fill:#209da0;}.cls-8{fill:#3bbac9;}</style></defs><path class="cls-1" d="M249.46,423.84S170.74,140.76,515.12,165.66,628.27-36.1,913.62,5c0,0,155.89,29.89,163.55,158.17V423.84Z" transform="translate(-241.71)"/><ellipse class="cls-1" cx="640.31" cy="226.6" rx="145.89" ry="138.07"/><ellipse class="cls-2" cx="640.31" cy="201.34" rx="145.89" ry="134.21"/><ellipse class="cls-3" cx="640.31" cy="259.2" rx="145.89" ry="134.21"/><ellipse class="cls-4" cx="640.31" cy="231.48" rx="145.89" ry="128.23"/><ellipse class="cls-5" cx="640.31" cy="205.53" rx="145.89" ry="124.53"/><ellipse class="cls-6" cx="640.31" cy="188.04" rx="145.89" ry="107.03"/><path class="cls-7" d="M833.68,169.46c-3.95,1.84-23.72,9.76-37.28-8.13a2.12,2.12,0,0,1,0-2.3c3.16-5.06,17.08-22.25,51.06-.8,0,0,24.27-30.35,70.26-7.27,0,0,1.76-11.21-4.82-18-.28-.28,0-.87.31-.83,3.22.38,12.2,3.51,19,25.76,0,0,16.23,2.87,19.25,30.46,0,0,8.81,9.74,4.76,10.45s-22.22,4.32-32-10.94c0,0-5.89,18.35-18.34,23.41s6.5-15.5,3.75-25.5c0,0-25.36-13.91-64.1-8,0,0-.25,16.76-8.43,27.25-2.7,3.46-7.1,2.7-8.46-1.46-2.3-7-3.71-19.16,5.27-33.66C834,169.67,833.89,169.37,833.68,169.46Z" transform="translate(-241.71)"/><path class="cls-8" d="M836.06,165.3c-3.88,1.7-23.27,9-36.75-8a1.94,1.94,0,0,1,0-2.18c3.06-4.78,16.62-20.94,50.22-.32,0,0,23.64-28.55,69.07-6.28,0,0,1.64-10.61-4.89-17.08-.27-.27-.06-.82.3-.78,3.17.38,12,3.43,18.89,24.57,0,0,16,2.87,19.18,29,0,0,8.73,9.31,4.75,10s-21.82,3.91-31.54-10.64c0,0-5.65,17.34-17.86,22s6.27-14.63,3.49-24.13c0,0-25.06-13.4-63.13-8.17,0,0-.11,15.87-8.08,25.75-2.62,3.26-7,2.5-8.33-1.46-2.31-6.67-3.8-18.18,4.92-31.85C836.41,165.49,836.26,165.21,836.06,165.3Z" transform="translate(-241.71)"/></svg>