<svg id="Слой_1" data-name="Слой 1" xmlns="http://www.w3.org/2000/svg" viewBox="0 0 805.12 407.65"><defs><style>.cls-1{fill:#ddeeed;}.cls-2,.cls-3,.cls-5,.cls-6{fill:#1f9ba5;}.cls-2{opacity:0.25;}.cls-4{fill:#4abdcf;}.cls-5{stroke:#20929b;stroke-miterlimit:10;stroke-width:0.25px;}.cls-6{opacity:0.36;}.cls-7{fill:#a5473a;}.cls-8{fill:#db6558;}.cls-9{fill:#fff;}.cls-10{fill:#9e4838;}</style></defs><path class="cls-1" d="M344,212.6S438.67,33.76,764.3,60.89s272.24,248,272.24,248l-498,48.54Z" transform="translate(-272.04 -17.55)"/><path class="cls-1" d="M279.51,425.2s-51.25-184,114.81-236.15q7.88-2.48,16.41-4.55c33.31-8.05,74.34-11.26,124.8-7.61,191.54,13.82,198.31-52.95,222.65-104.3C776,35,803.28,5.64,919.55,22.35c0,0,150.24,28.75,157.62,152.14V425.2Z" transform="translate(-272.04 -17.55)"/><polygon class="cls-2" points="453.84 178.36 453.84 201.72 475.25 190.04 453.84 178.36"/><polygon class="cls-3" points="453.84 229.63 453.84 331.72 592.99 407.65 592.99 305.55 453.84 229.63"/><polygon class="cls-4" points="592.99 305.47 732.13 229.55 732.13 331.64 592.99 407.57 592.99 305.47"/><polygon class="cls-5" points="592.99 305.47 453.84 229.55 592.99 153.62 732.13 229.55 592.99 305.47"/><polygon class="cls-6" points="592.99 277.65 453.84 201.72 592.99 125.79 732.13 201.72 592.99 277.65"/><polygon class="cls-2" points="592.99 254.28 453.84 178.36 592.99 102.43 732.13 178.36 592.99 254.28"/><polygon class="cls-2" points="453.84 201.72 453.84 229.55 479.34 215.63 453.84 201.72"/><polygon class="cls-2" points="732.13 201.72 732.13 229.55 706.64 215.63 732.13 201.72"/><polygon class="cls-2" points="732.13 178.36 732.13 201.72 710.69 190.04 732.13 178.36"/><path class="cls-7" d="M744.76,182.16V201a23.15,23.15,0,0,0,12.84,20.47l81.12,41.85a25.84,25.84,0,0,0,20.14,1.45C883,256.48,943.38,233.62,985,199.72a22.62,22.62,0,0,0,8.43-17.56h0A23.11,23.11,0,0,0,981.14,162l-105-57.38a14.9,14.9,0,0,0-14,0L757.08,162A23.11,23.11,0,0,0,744.76,182.16Z" transform="translate(-272.04 -17.55)"/><path class="cls-7" d="M993.46,162.44v21.35s-1.94-10.13-2.78-12.37S993.46,162.44,993.46,162.44Z" transform="translate(-272.04 -17.55)"/><path class="cls-8" d="M744.76,154.09v32.39a8.18,8.18,0,0,0,5,7.26l94.85,44.58a10.93,10.93,0,0,0,7.68.56c18-5.33,92-28.75,138-65.35a7.89,7.89,0,0,0,3.14-6.12V154.09a8.15,8.15,0,0,0-4.8-7.16L873.89,89.8a10.94,10.94,0,0,0-9.57,0L749.56,146.93A8.15,8.15,0,0,0,744.76,154.09Z" transform="translate(-272.04 -17.55)"/><path class="cls-9" d="M826,153.35,889.49,141c5.34-1,9.71,3.69,7.35,8l-19.46,35c-1.66,3-6,4.11-9.26,2.41l-44-22.68C819,161.09,820.23,154.47,826,153.35Z" transform="translate(-272.04 -17.55)"/><path class="cls-10" d="M823.9,145.22l67.3-15.34a7,7,0,0,1,7.79,9.86l-20.63,43.47a6.9,6.9,0,0,1-9.81,3l-46.68-28.13A7,7,0,0,1,823.9,145.22Z" transform="translate(-272.04 -17.55)"/><path class="cls-7" d="M818.49,152.2c0,.43,2.67,8.28,2.67,8.28l1.31-6.85Z" transform="translate(-272.04 -17.55)"/><polygon class="cls-7" points="627.59 119.94 625.25 130.29 621.79 125.91 627.59 119.94"/><path class="cls-9" d="M826,153.35,889.49,141c5.34-1,9.71,3.69,7.35,8l-19.46,35c-1.66,3-6,4.11-9.26,2.41l-44-22.68C819,161.09,820.23,154.47,826,153.35Z" transform="translate(-272.04 -17.55)"/></svg>