<svg id="Слой_1" data-name="Слой 1" xmlns="http://www.w3.org/2000/svg" viewBox="0 0 805.12 407.85"><defs><style>.cls-1{fill:#ddeeed;}.cls-2{fill:#a4aaba;}.cls-3{fill:#d1d8ef;}.cls-4{fill:#e2e8f7;}</style></defs><path class="cls-1" d="M919.56,22.2C815.67,7.26,782.84,29.09,764.3,60.74,438.67,33.61,344,212.44,344,212.44h0C239.68,282.06,279.51,425,279.51,425h797.66V174.33C1069.79,51,919.56,22.2,919.56,22.2Z" transform="translate(-272.05 -17.39)"/><path class="cls-2" d="M778.54,365.08l137.29-66.56a5.1,5.1,0,0,1,5.31.52l154.07,117.53a4.81,4.81,0,0,1-3.08,8.63H842.08a5.07,5.07,0,0,1-3.24-1.17l-61.31-51A4.76,4.76,0,0,1,778.54,365.08Z" transform="translate(-272.05 -17.39)"/><path class="cls-3" d="M917.94,297V159.45a13.19,13.19,0,0,1,20.57-10.93L1071.07,238a13.19,13.19,0,0,1,5.81,10.93V418.31Z" transform="translate(-272.05 -17.39)"/><polygon class="cls-3" points="585.09 334.73 591.59 331.57 602.1 340.74 595.51 344.21 585.09 334.73"/><polygon class="cls-3" points="597.24 346.1 603.74 342.95 614.26 352.11 607.67 355.58 597.24 346.1"/><polygon class="cls-3" points="609.79 357.06 616.29 353.91 626.81 363.08 620.22 366.55 609.79 357.06"/><polygon class="cls-3" points="621.19 369.1 627.7 365.94 638.21 375.11 631.62 378.58 621.19 369.1"/><polygon class="cls-3" points="633.35 380.47 639.85 377.32 650.37 386.48 643.78 389.95 633.35 380.47"/><polygon class="cls-3" points="645.9 391.44 652.4 388.28 662.92 397.45 656.33 400.92 645.9 391.44"/><polygon class="cls-3" points="594.43 329.01 600.93 325.86 611.45 335.02 604.86 338.5 594.43 329.01"/><polygon class="cls-3" points="606.58 340.39 613.09 337.23 623.6 346.4 617.01 349.87 606.58 340.39"/><polygon class="cls-3" points="619.13 351.35 625.64 348.2 636.15 357.36 629.56 360.84 619.13 351.35"/><polygon class="cls-3" points="630.54 363.38 637.04 360.23 647.56 369.4 640.97 372.87 630.54 363.38"/><polygon class="cls-3" points="642.69 374.76 649.2 371.61 659.71 380.77 653.12 384.24 642.69 374.76"/><polygon class="cls-3" points="655.24 385.72 661.75 382.57 672.26 391.74 665.67 395.21 655.24 385.72"/><polygon class="cls-3" points="603.78 324.06 610.28 320.91 620.8 330.07 614.21 333.55 603.78 324.06"/><polygon class="cls-3" points="615.93 335.44 622.43 332.28 632.95 341.45 626.36 344.92 615.93 335.44"/><polygon class="cls-3" points="628.48 346.4 634.99 343.25 645.5 352.41 638.91 355.89 628.48 346.4"/><polygon class="cls-3" points="639.89 358.43 646.39 355.28 656.91 364.45 650.32 367.92 639.89 358.43"/><polygon class="cls-3" points="652.04 369.81 658.54 366.65 669.06 375.82 662.47 379.29 652.04 369.81"/><polygon class="cls-3" points="664.59 380.77 671.09 377.62 681.61 386.79 675.02 390.26 664.59 380.77"/><polygon class="cls-3" points="613.13 319.35 619.63 316.2 630.14 325.37 623.55 328.84 613.13 319.35"/><polygon class="cls-3" points="625.28 330.73 631.78 327.57 642.3 336.74 635.71 340.21 625.28 330.73"/><polygon class="cls-3" points="637.83 341.69 644.33 338.54 654.85 347.71 648.26 351.18 637.83 341.69"/><polygon class="cls-3" points="649.23 353.73 655.74 350.57 666.25 359.74 659.66 363.21 649.23 353.73"/><polygon class="cls-3" points="661.39 365.1 667.89 361.95 678.41 371.11 671.82 374.58 661.39 365.1"/><polygon class="cls-3" points="673.94 376.07 680.44 372.91 690.96 382.08 684.37 385.55 673.94 376.07"/><polygon class="cls-3" points="621.63 314.5 628.14 311.35 638.65 320.51 632.06 323.98 621.63 314.5"/><polygon class="cls-3" points="633.79 325.88 640.29 322.72 650.81 331.89 644.22 335.36 633.79 325.88"/><polygon class="cls-3" points="646.34 336.84 652.84 333.69 663.36 342.85 656.77 346.32 646.34 336.84"/><polygon class="cls-3" points="657.74 348.87 664.25 345.72 674.76 354.88 668.17 358.36 657.74 348.87"/><polygon class="cls-3" points="669.9 360.25 676.4 357.09 686.92 366.26 680.33 369.73 669.9 360.25"/><polygon class="cls-3" points="682.45 371.21 688.95 368.06 699.47 377.22 692.88 380.7 682.45 371.21"/><polygon class="cls-3" points="630.98 308.69 637.49 305.54 648 314.7 641.41 318.18 630.98 308.69"/><polygon class="cls-3" points="643.13 320.07 649.64 316.91 660.15 326.08 653.56 329.55 643.13 320.07"/><polygon class="cls-3" points="655.68 331.03 662.19 327.88 672.7 337.04 666.11 340.52 655.68 331.03"/><polygon class="cls-3" points="667.09 343.06 673.59 339.91 684.11 349.07 677.52 352.55 667.09 343.06"/><polygon class="cls-3" points="679.24 354.44 685.75 351.28 696.26 360.45 689.67 363.92 679.24 354.44"/><polygon class="cls-3" points="691.79 365.4 698.3 362.25 708.81 371.42 702.22 374.89 691.79 365.4"/><polygon class="cls-3" points="641.86 303.84 648.36 300.68 658.88 309.85 652.29 313.32 641.86 303.84"/><polygon class="cls-3" points="654.01 315.21 660.51 312.06 671.03 321.22 664.44 324.7 654.01 315.21"/><polygon class="cls-3" points="666.56 326.18 673.06 323.02 683.58 332.19 676.99 335.66 666.56 326.18"/><polygon class="cls-3" points="677.97 338.21 684.47 335.06 694.99 344.22 688.39 347.69 677.97 338.21"/><polygon class="cls-3" points="690.12 349.58 696.62 346.43 707.14 355.6 700.55 359.07 690.12 349.58"/><polygon class="cls-3" points="702.67 360.55 709.17 357.4 719.69 366.56 713.1 370.03 702.67 360.55"/><polyline class="cls-3" points="663.31 407.8 658.88 403.77 665.38 400.62 673.67 407.85"/><polygon class="cls-3" points="667.09 398.36 673.59 395.21 684.11 404.37 677.52 407.85 667.09 398.36"/><polygon class="cls-3" points="677.97 393.11 684.47 389.95 694.99 399.12 688.39 402.59 677.97 393.11"/><polyline class="cls-3" points="693.77 407.8 690.12 404.48 696.62 401.33 704.05 407.8"/><polygon class="cls-3" points="686.45 387.49 692.95 384.34 703.47 393.5 696.88 396.98 686.45 387.49"/><polyline class="cls-3" points="708.43 407.8 698.6 398.87 705.11 395.71 715.62 404.88 710.07 407.8"/><polyline class="cls-3" points="715.34 407.8 717.66 406.68 718.95 407.8"/><polygon class="cls-3" points="693.46 382.45 699.96 379.29 710.48 388.46 703.88 391.93 693.46 382.45"/><polygon class="cls-3" points="705.61 393.82 712.11 390.67 722.63 399.83 716.04 403.31 705.61 393.82"/><polyline class="cls-3" points="721.48 407.8 718.16 404.79 724.66 401.63 731.74 407.8"/><polygon class="cls-3" points="704.31 376.83 710.81 373.68 721.33 382.84 714.74 386.31 704.31 376.83"/><polygon class="cls-3" points="716.46 388.2 722.96 385.05 733.48 394.22 726.89 397.69 716.46 388.2"/><polyline class="cls-3" points="738.5 407.8 729.01 399.17 735.51 396.02 746.03 405.18 741.01 407.82"/><polygon class="cls-3" points="715.35 371.78 721.86 368.63 732.37 377.8 725.78 381.27 715.35 371.78"/><polygon class="cls-3" points="727.51 383.16 734.01 380 744.52 389.17 737.93 392.64 727.51 383.16"/><polygon class="cls-3" points="740.06 394.12 746.56 390.97 757.08 400.14 750.49 403.61 740.06 394.12"/><polyline class="cls-3" points="753.29 407.82 751.46 406.15 757.97 403 763.5 407.82"/><polygon class="cls-4" points="655.68 147.16 655.68 266.48 804.92 382.61 804.84 253.27 655.68 147.16"/></svg>