<svg id="Слой_1" data-name="Слой 1" xmlns="http://www.w3.org/2000/svg" viewBox="0 0 805.12 407.72"><defs><style>.cls-1{fill:#ddeeed;}.cls-2,.cls-3,.cls-5,.cls-6,.cls-7{fill:#1f9ba5;}.cls-2{opacity:0.25;}.cls-4{fill:#4abdcf;}.cls-10,.cls-11,.cls-12,.cls-14,.cls-5,.cls-6,.cls-8,.cls-9{stroke:#20929b;}.cls-10,.cls-11,.cls-12,.cls-13,.cls-14,.cls-15,.cls-5,.cls-6,.cls-8,.cls-9{stroke-miterlimit:10;}.cls-10,.cls-11,.cls-12,.cls-13,.cls-5,.cls-6,.cls-8,.cls-9{stroke-width:0.25px;}.cls-6{opacity:0.19;}.cls-7{opacity:0.36;}.cls-12,.cls-8{fill:#178184;}.cls-8{opacity:0.82;}.cls-9{fill:#157777;}.cls-10{fill:#105151;}.cls-11{fill:#105454;}.cls-13{fill:#196e6e;stroke:#178184;}.cls-14,.cls-15{fill:none;}.cls-14{stroke-width:2px;}.cls-15{stroke:#4abdcf;}</style></defs><path class="cls-1" d="M279.51,425.12s-75.86-272.27,256-248.31,109-194.06,384-154.53c0,0,150.24,28.75,157.62,152.14v250.7Z" transform="translate(-272.04 -17.47)"/><polygon class="cls-2" points="484.07 197.97 484.07 219.34 505.48 208.66 484.07 197.97"/><polygon class="cls-2" points="483.94 172.35 483.94 197.97 509.89 185.16 483.94 172.35"/><polygon class="cls-2" points="483.94 143.77 483.94 172.19 512.55 157.98 483.94 143.77"/><polygon class="cls-2" points="762.37 172.35 762.37 197.97 736.41 185.16 762.37 172.35"/><polygon class="cls-2" points="762.37 143.77 762.37 172.19 733.76 157.98 762.37 143.77"/><polygon class="cls-3" points="484.07 244.87 484.07 338.27 623.22 407.72 623.22 314.33 484.07 244.87"/><polygon class="cls-4" points="623.22 314.25 762.37 244.8 762.37 338.19 623.22 407.65 623.22 314.25"/><polygon class="cls-5" points="623.22 314.25 484.07 244.8 623.22 175.34 762.37 244.8 623.22 314.25"/><polygon class="cls-6" points="623.22 241.65 484.07 172.19 623.22 102.74 762.37 172.19 623.22 241.65"/><polygon class="cls-7" points="623.22 288.8 484.07 219.34 623.22 149.88 762.37 219.34 623.22 288.8"/><polygon class="cls-2" points="484.07 219.34 484.07 244.8 509.57 232.07 484.07 219.34"/><polygon class="cls-2" points="762.37 219.34 762.37 244.8 736.87 232.07 762.37 219.34"/><polygon class="cls-2" points="762.37 197.97 762.37 219.34 740.92 208.66 762.37 197.97"/><polygon class="cls-2" points="623.22 267.43 484.07 197.97 623.22 128.51 762.37 197.97 623.22 267.43"/><polygon class="cls-8" points="623.22 213.24 484.07 143.78 623.22 74.33 762.37 143.78 623.22 213.24"/><ellipse class="cls-8" cx="897.19" cy="141.5" rx="33.89" ry="58.22" transform="matrix(0.09, -1, 1, 0.09, 407.27, 1005.79)"/><ellipse class="cls-9" cx="896.34" cy="143.95" rx="33.89" ry="58.22" transform="translate(404.04 1007.18) rotate(-85.08)"/><ellipse class="cls-10" cx="895.75" cy="154.11" rx="33.89" ry="58.22" transform="translate(393.39 1015.88) rotate(-85.08)"/><ellipse class="cls-11" cx="895.75" cy="158.25" rx="33.89" ry="58.22" transform="translate(389.26 1019.67) rotate(-85.08)"/><ellipse class="cls-12" cx="895.26" cy="159.79" rx="33.89" ry="58.22" transform="matrix(0.09, -1, 1, 0.09, 387.28, 1020.59)"/><ellipse class="cls-13" cx="895.99" cy="148.07" rx="33.89" ry="58.22" transform="translate(399.61 1010.6) rotate(-85.08)"/><ellipse class="cls-14" cx="894.98" cy="148.69" rx="36.7" ry="70.89" transform="translate(306.98 981.67) rotate(-79.05)"/><ellipse class="cls-12" cx="898.59" cy="144.79" rx="12.96" ry="22.97" transform="translate(313.73 982.05) rotate(-79.05)"/><polygon class="cls-12" points="614.59 114.6 572.75 82.65 568.3 84.53 610.77 116.95 614.59 114.6"/><polygon class="cls-12" points="613.26 134.32 555.06 146.03 557.42 150.15 619.25 136.53 616.28 132.97 613.26 134.32"/><polygon class="cls-12" points="638.27 118.72 692.92 95.73 696.33 98.34 640.86 121.67 638.27 118.72"/><polygon class="cls-12" points="645.4 129.84 700.9 141.64 698.9 144.94 639.51 132.31 645.4 129.84"/><polygon class="cls-12" points="622.52 137.04 614.86 172.02 619.65 172.39 627.32 137.41 622.52 137.04"/><polyline class="cls-12" points="631.14 123.75 635.65 104.41 639.52 87.8 633.45 87.23 625.39 121.8"/><polygon class="cls-12" points="611.71 120.2 560.57 93 556.82 95.32 608.72 122.93 611.71 120.2"/><polygon class="cls-12" points="606.68 127.4 548.02 126.25 547.99 129.78 610.77 131 606.68 127.4"/><polygon class="cls-12" points="635.64 129.98 690.29 106.99 693.71 109.6 638.23 132.93 635.64 129.98"/><polygon class="cls-12" points="635.61 137.17 684.69 156.35 681.31 159.25 628.78 138.71 635.61 137.17"/><ellipse class="cls-4" cx="896.14" cy="142.7" rx="12.96" ry="22.97" transform="translate(313.8 977.95) rotate(-79.05)"/><polygon class="cls-4" points="612.14 112.51 570.3 80.56 565.85 82.44 608.32 114.86 612.14 112.51"/><polygon class="cls-4" points="610.81 132.23 552.61 143.94 554.97 148.06 616.8 134.44 613.83 130.88 610.81 132.23"/><polygon class="cls-4" points="635.82 116.64 690.47 93.64 693.88 96.25 638.4 119.58 635.82 116.64"/><polygon class="cls-4" points="642.95 127.75 698.45 139.55 696.45 142.85 637.06 130.22 642.95 127.75"/><polygon class="cls-4" points="620.14 134.56 612.47 169.55 617.26 169.92 624.93 134.93 620.14 134.56"/><polyline class="cls-4" points="628.69 121.66 633.2 102.32 637.07 85.71 631 85.15 622.94 119.71"/><polygon class="cls-4" points="609.25 118.11 558.12 90.92 554.36 93.23 606.27 120.84 609.25 118.11"/><polygon class="cls-4" points="604.23 125.31 545.57 124.17 545.54 127.69 608.32 128.91 604.23 125.31"/><polygon class="cls-4" points="633.19 127.89 687.84 104.9 691.25 107.51 635.78 130.84 633.19 127.89"/><polygon class="cls-4" points="633.15 135.08 682.24 154.26 678.86 157.16 626.33 136.62 633.15 135.08"/><ellipse class="cls-15" cx="896.63" cy="144.25" rx="36.7" ry="70.89" transform="translate(312.67 979.69) rotate(-79.05)"/></svg>