<svg id="Слой_1" data-name="Слой 1" xmlns="http://www.w3.org/2000/svg" viewBox="0 0 16.52 16.45"><defs><style>.cls-1{fill:none;stroke:#21a5b7;stroke-miterlimit:10;}</style></defs><path class="cls-1" d="M9.37,16.58l-1.71-2a1.09,1.09,0,0,1,.53-1.76L21.54,9.05a1.09,1.09,0,0,1,1.35,1.32L19.41,23.64a1.09,1.09,0,0,1-1.81.51l-2.76-2.68a1.5,1.5,0,0,1,0-1.65L20,12.35a.06.06,0,0,0-.09-.09L13,17.05A2.73,2.73,0,0,1,9.37,16.58Z" transform="translate(-6.9 -8.5)"/><path class="cls-1" d="M11,17.48l1.75,4.41a.83.83,0,0,0,1.63-.16l.58-2.33" transform="translate(-6.9 -8.5)"/><line class="cls-1" x1="7.16" y1="13.73" x2="8.42" y2="13.13"/></svg>