<svg id="Слой_1" data-name="Слой 1" xmlns="http://www.w3.org/2000/svg" viewBox="0 0 25.69 19.13"><defs><style>.cls-1{fill:none;stroke:#21a5b7;stroke-miterlimit:10;}</style></defs><path class="cls-1" d="M5.15,6.14H8.08A1.17,1.17,0,0,1,9.23,7.19a17.06,17.06,0,0,0,1.44,5.42,1.15,1.15,0,0,0,2.19-.53V6.68s-.86-.53-.65-.54c.93,0,5.17,0,5.17,0a1.16,1.16,0,0,1,1.15,1.18v6.1a1.15,1.15,0,0,0,1.75,1c1.55-.95,3.66-3,4.28-7.29a1.15,1.15,0,0,1,1.13-1h1.74a1.16,1.16,0,0,1,1.15,1.21c0,1.93-.39,5.68-2.14,7.31a1.15,1.15,0,0,0-.16,1.46,14.12,14.12,0,0,1,2.41,6.93,1.17,1.17,0,0,1-1.16,1.15H24.76a1.17,1.17,0,0,1-1.07-.71,6.85,6.85,0,0,0-3.48-3.73,1.16,1.16,0,0,0-1.55,1.11v2.2a1.16,1.16,0,0,1-1.16,1.18C14.09,24.23,4.37,22.81,4,7.33A1.16,1.16,0,0,1,5.15,6.14Z" transform="translate(-3.5 -5.62)"/></svg>