<?xml version="1.0" encoding="utf-8"?>
<!-- Generator: Adobe Illustrator 24.3.0, SVG Export Plug-In . SVG Version: 6.00 Build 0)  -->
<svg version="1.1" id="Слой_1" xmlns="http://www.w3.org/2000/svg" xmlns:xlink="http://www.w3.org/1999/xlink" x="0px" y="0px"
	 viewBox="0 0 1077.17 425.2" style="enable-background:new 0 0 1077.17 425.2;" xml:space="preserve">
<style type="text/css">
	.st0{fill:#DDEEED;}
	.st1{opacity:0.25;fill:#1F9BA5;}
	.st2{fill:#1F9BA5;}
	.st3{fill:#4ABDCF;}
	.st4{fill:#1F9BA5;stroke:#20929B;stroke-width:0.25;stroke-miterlimit:10;}
	.st5{opacity:0.19;fill:#1F9BA5;stroke:#20929B;stroke-width:0.25;stroke-miterlimit:10;}
	.st6{opacity:0.36;fill:#1F9BA5;}
	.st7{opacity:0.82;fill:#178184;stroke:#20929B;stroke-width:0.25;stroke-miterlimit:10;}
	.st8{fill:#157777;stroke:#20929B;stroke-width:0.25;stroke-miterlimit:10;}
	.st9{fill:#105151;stroke:#20929B;stroke-width:0.25;stroke-miterlimit:10;}
	.st10{fill:#105454;stroke:#20929B;stroke-width:0.25;stroke-miterlimit:10;}
	.st11{fill:#178184;stroke:#20929B;stroke-width:0.25;stroke-miterlimit:10;}
	.st12{fill:#196E6E;stroke:#178184;stroke-width:0.25;stroke-miterlimit:10;}
	.st13{fill:none;stroke:#20929B;stroke-width:2;stroke-miterlimit:10;}
	.st14{fill:none;stroke:#4ABDCF;stroke-miterlimit:10;}
</style>
<path class="st0" d="M279.51,428.08c0,0-75.86-272.27,256.02-248.31S644.57-14.3,919.55,25.23c0,0,150.23,28.75,157.61,152.14
	v250.71H279.51z"/>
<polygon class="st1" points="756.12,218.4 756.12,239.77 777.52,229.08 "/>
<polygon class="st1" points="755.98,192.78 755.98,218.4 781.94,205.59 "/>
<polygon class="st1" points="755.98,164.2 755.98,192.62 784.59,178.41 "/>
<polygon class="st1" points="1034.41,192.78 1034.41,218.4 1008.46,205.59 "/>
<polygon class="st1" points="1034.41,164.2 1034.41,192.62 1005.8,178.41 "/>
<polygon class="st2" points="756.12,265.3 756.12,358.7 895.26,428.15 895.26,334.76 "/>
<polygon class="st3" points="895.26,334.68 1034.41,265.23 1034.41,358.62 895.26,428.08 "/>
<polygon class="st4" points="895.26,334.68 756.12,265.23 895.26,195.77 1034.41,265.23 "/>
<polygon class="st5" points="895.26,262.08 756.12,192.62 895.26,123.16 1034.41,192.62 "/>
<polygon class="st6" points="895.26,309.23 756.12,239.77 895.26,170.31 1034.41,239.77 "/>
<polygon class="st1" points="756.12,239.77 756.12,265.23 781.62,252.5 "/>
<polygon class="st1" points="1034.41,239.77 1034.41,265.23 1008.91,252.5 "/>
<polygon class="st1" points="1034.41,218.4 1034.41,239.77 1012.96,229.08 "/>
<polygon class="st1" points="895.26,287.86 756.12,218.4 895.26,148.94 1034.41,218.4 "/>
<polygon class="st7" points="895.26,233.67 756.12,164.21 895.26,94.75 1034.41,164.21 "/>
<ellipse transform="matrix(0.0857 -0.9963 0.9963 0.0857 676.3696 1025.9641)" class="st7" cx="897.19" cy="144.45" rx="33.89" ry="58.22"/>
<ellipse transform="matrix(0.0857 -0.9963 0.9963 0.0857 673.1439 1027.3563)" class="st8" cx="896.34" cy="146.91" rx="33.89" ry="58.22"/>
<ellipse transform="matrix(0.0857 -0.9963 0.9963 0.0857 662.4868 1036.0582)" class="st9" cx="895.75" cy="157.06" rx="33.89" ry="58.22"/>
<ellipse transform="matrix(0.0857 -0.9963 0.9963 0.0857 658.3574 1039.8475)" class="st10" cx="895.75" cy="161.21" rx="33.89" ry="58.22"/>
<ellipse transform="matrix(0.0857 -0.9963 0.9963 0.0857 656.3773 1040.7672)" class="st11" cx="895.26" cy="162.75" rx="33.89" ry="58.22"/>
<ellipse transform="matrix(0.0857 -0.9963 0.9963 0.0857 668.7148 1030.7701)" class="st12" cx="895.99" cy="151.03" rx="33.89" ry="58.22"/>
<g>
	
		<ellipse transform="matrix(0.1899 -0.9818 0.9818 0.1899 576.1229 1001.5353)" class="st13" cx="894.98" cy="151.64" rx="36.7" ry="70.89"/>
	
		<ellipse transform="matrix(0.1899 -0.9818 0.9818 0.1899 582.8759 1001.9193)" class="st11" cx="898.59" cy="147.74" rx="12.96" ry="22.97"/>
	<polygon class="st11" points="886.64,135.03 844.8,103.08 840.34,104.96 882.81,137.38 	"/>
	<polygon class="st11" points="885.31,154.75 827.1,166.46 829.46,170.58 891.3,156.96 888.32,153.4 	"/>
	<polygon class="st11" points="910.31,139.15 964.96,116.16 968.38,118.77 912.9,142.1 	"/>
	<polygon class="st11" points="917.45,150.27 972.94,162.07 970.94,165.37 911.55,152.74 	"/>
	<polygon class="st11" points="894.57,157.47 886.9,192.45 891.7,192.82 899.37,157.84 	"/>
	<polyline class="st11" points="903.18,144.18 907.7,124.83 911.57,108.23 905.49,107.66 897.43,142.23 	"/>
	<polygon class="st11" points="883.75,140.63 832.62,113.43 828.86,115.75 880.76,143.36 	"/>
	<polygon class="st11" points="878.72,147.83 820.06,146.68 820.04,150.21 882.81,151.43 	"/>
	<polygon class="st11" points="907.69,150.41 962.34,127.42 965.75,130.03 910.27,153.36 	"/>
	<polygon class="st11" points="907.65,157.6 956.73,176.78 953.36,179.68 900.83,159.14 	"/>
	
		<ellipse transform="matrix(0.1899 -0.9818 0.9818 0.1899 582.9425 997.8206)" class="st3" cx="896.14" cy="145.65" rx="12.96" ry="22.97"/>
	<polygon class="st3" points="884.19,132.94 842.35,100.99 837.89,102.87 880.36,135.29 	"/>
	<polygon class="st3" points="882.86,152.66 824.65,164.37 827.01,168.49 888.85,154.87 885.87,151.31 	"/>
	<polygon class="st3" points="907.86,137.06 962.51,114.07 965.93,116.68 910.45,140.01 	"/>
	<polygon class="st3" points="915,148.18 970.49,159.98 968.49,163.28 909.1,150.65 	"/>
	<polygon class="st3" points="892.18,154.99 884.51,189.98 889.31,190.35 896.98,155.36 	"/>
	<polyline class="st3" points="900.73,142.09 905.24,122.74 909.12,106.14 903.04,105.57 894.98,140.14 	"/>
	<polygon class="st3" points="881.3,138.54 830.16,111.34 826.41,113.66 878.31,141.27 	"/>
	<polygon class="st3" points="876.27,145.74 817.61,144.59 817.59,148.12 880.36,149.34 	"/>
	<polygon class="st3" points="905.23,148.32 959.89,125.33 963.3,127.94 907.82,151.27 	"/>
	<polygon class="st3" points="905.2,155.51 954.28,174.69 950.91,177.59 898.38,157.05 	"/>
	
		<ellipse transform="matrix(0.1899 -0.9818 0.9818 0.1899 581.8177 999.558)" class="st14" cx="896.63" cy="147.2" rx="36.7" ry="70.89"/>
</g>
</svg>
